<svg xmlns="http://www.w3.org/2000/svg" viewBox="0 0 14.7 15"><defs><style>.cls-1{fill:#026cb6;}</style></defs><title>Agriculture</title><g id="Layer_2" data-name="Layer 2"><g id="clusters"><g id="icons"><g id="blue"><path class="cls-1" d="M2.29,14.57l-.2-2c0-.19.24,0,.54,0h0c.3,0,.54-.17.54,0h0l-.17,2C3,15,2.29,14.78,2.29,14.57ZM1.41,7.9C-.08,7.22,0,6.16,0,6.16c-.19.37.21,3.65,1.77,3.65C2.51,9.81,3.09,8.65,1.41,7.9Zm0-2.31C-.08,4.91,0,3.85,0,3.85-.15,4.23.26,7.5,1.81,7.5,2.51,7.5,3.09,6.34,1.41,5.59Zm0-2.24C-.08,2.67,0,1.61,0,1.61-.15,2,.26,5.25,1.81,5.25,2.51,5.25,3.09,4.1,1.41,3.34ZM3.48,9.81c1.56,0,2-3.27,1.77-3.65,0,0,.12,1.06-1.37,1.74C2.2,8.65,2.79,9.81,3.48,9.81Zm-2.07.46C-.08,9.59,0,8.53,0,8.53c-.19.37.21,3.65,1.77,3.65C2.51,12.17,3.09,11,1.41,10.27Zm2.07,1.91c1.56,0,2-3.27,1.77-3.65,0,0,.12,1.06-1.37,1.74C2.2,11,2.79,12.17,3.48,12.17Zm0-4.68c1.56,0,2-3.27,1.77-3.65,0,0,.12,1.06-1.37,1.74C2.2,6.34,2.79,7.5,3.48,7.5Zm0-2.24C5,5.25,5.44,2,5.25,1.61c0,0,.12,1.06-1.37,1.73C2.2,4.1,2.79,5.25,3.48,5.25ZM2.76,3.52C4.41,3.52,2.67,0,2.67,0,2.46.33,1.11,3.52,2.76,3.52ZM7.22,14.85l1-1.74h0c.08-.17-.21-.12-.48-.25h0c-.28-.13-.42-.38-.5-.21l-.68,1.94C6.46,14.78,7,15.24,7.22,14.85ZM8.57,8.17C7.5,6.93,8.06,6,8.06,6c-.33.26-1.34,3.4.07,4.05C8.76,10.36,9.78,9.56,8.57,8.17Zm1-2.1C8.48,4.83,9,3.92,9,3.92,8.7,4.18,7.69,7.32,9.1,8,9.73,8.27,10.75,7.47,9.54,6.07Zm.94-2C9.42,2.81,10,1.89,10,1.89c-.33.26-1.34,3.4.07,4.05C10.68,6.23,11.69,5.44,10.49,4Zm-.84,6.74c1.41.65,3.15-2.14,3.14-2.56,0,0-.34,1-2,1C9,9.19,9,10.48,9.65,10.78Zm-2.07-.46C6.5,9.08,7.06,8.17,7.06,8.17c-.33.26-1.34,3.4.07,4C7.76,12.51,8.78,11.71,7.57,10.32Zm1.07,2.6c1.41.66,3.15-2.14,3.14-2.56,0,0-.34,1-2,1C8,11.34,8,12.63,8.65,12.92Zm2-4.24c1.41.66,3.15-2.14,3.14-2.56,0,0-.34,1-2,1C9.94,7.09,10,8.39,10.62,8.68Zm.94-2C13,7.3,14.71,4.5,14.7,4.08c0,0-.34,1-2,1C10.89,5.06,10.93,6.35,11.56,6.65Zm.07-1.88c1.5.7,1.4-3.23,1.4-3.23C12.7,1.75,10.14,4.07,11.63,4.76Z"/></g></g></g></g></svg>