<svg xmlns="http://www.w3.org/2000/svg" viewBox="0 0 15 15"><defs><style>.cls-1{fill:#026cb6;}</style></defs><title>Coordination</title><g id="Layer_2" data-name="Layer 2"><g id="clusters"><g id="icons"><g id="blue"><path class="cls-1" d="M2.66,10.66,1.39,9.4H5.61v4.21L4.34,12.35,1.69,15,0,13.31ZM13.31,15,15,13.31l-2.65-2.65L13.61,9.4H9.4v4.21l1.26-1.26ZM15,1.69,13.31,0,10.66,2.66,9.4,1.4V5.6h4.21L12.34,4.34ZM1.4,5.61H5.6V1.39L4.35,2.66,1.69,0,0,1.69,2.66,4.34Zm6.1.06A1.83,1.83,0,1,0,9.33,7.5,1.83,1.83,0,0,0,7.5,5.67Z"/></g></g></g></g></svg>