<svg xmlns="http://www.w3.org/2000/svg" viewBox="0 0 15 10.71"><defs><style>.cls-1{fill:#026cb6;}</style></defs><title>Education</title><g id="Layer_2" data-name="Layer 2"><g id="clusters"><g id="icons"><g id="blue"><path class="cls-1" d="M7.57,1.23C7.06.74,4.08-1,0,.77V10.4H6.18a2.24,2.24,0,0,0,1.31.31,2.25,2.25,0,0,0,1.31-.31H15V.77A7.63,7.63,0,0,0,7.57,1.23ZM7,9.8c0-.33-2.9-2.26-6.25-.15V1.48A5.17,5.17,0,0,1,3.31.87C5.36.87,7,1.54,7,2.79Zm7.25-.15C10.93,7.54,8,9.47,8,9.8v-7C8,1.54,9.69.87,11.74.87a5.17,5.17,0,0,1,2.54.61Z"/></g></g></g></g></svg>