<svg xmlns="http://www.w3.org/2000/svg" viewBox="0 0 10.71 15"><defs><style>.cls-1{fill:#026cb6;}</style></defs><title>Logistics</title><g id="Layer_2" data-name="Layer 2"><g id="clusters"><g id="icons"><g id="blue"><path class="cls-1" d="M10.71,1.74c0-.08-.07-.14-.22-.18l-.31-.11a2.8,2.8,0,0,0-.65-.2l-.19,0-.53.17-.41.08-1.12.23L2.35,0,2.24,0a.56.56,0,0,0-.45.25L4.94,2.18l-1.06.2L3,1.65l-.25,0v.58l-1.06-.4L1.45,2l.93.82v0c0,.15.1.22.29.22l.47.58.23-.08.08-.42H5.92l.52.39V4.8H6.9l1-2.06c.32-.05.66-.12,1-.19L10,2.31l.23-.12L10.47,2a1.07,1.07,0,0,0,.18-.16A.22.22,0,0,0,10.71,1.74ZM8.83,12.36H8.69V12a11.88,11.88,0,0,0-.12-1.73V6.76H8.36V5.94H8.09v.81H7.88V9.15l-.15-.09V6.61c0-.2-1-.82-3.23-.82s-3.21.62-3.21.82V9.07a1.64,1.64,0,0,0-.82,1.21A11.87,11.87,0,0,0,.35,12v.35H.21q-.21,0-.21.58t.21.56H1.1v.17a5.61,5.61,0,0,0,0,.64,3,3,0,0,0,.07.4.68.68,0,0,0,.63.29.66.66,0,0,0,.62-.29,2.44,2.44,0,0,0,.12-.92V13.5H6.48v.29a2.4,2.4,0,0,0,.12.92.66.66,0,0,0,.62.29.68.68,0,0,0,.64-.29,3.36,3.36,0,0,0,.07-.4,5.87,5.87,0,0,0,0-.64V13.5h.89c.14,0,.21-.19.21-.56S9,12.36,8.83,12.36ZM2,11.67a.58.58,0,1,1,.58-.58A.58.58,0,0,1,2,11.67Zm.35-2.57A.36.36,0,0,1,2,8.74V7.93a.55.55,0,0,1,.36-.48,7.38,7.38,0,0,1,2.19-.3,7.44,7.44,0,0,1,2.19.3A.62.62,0,0,1,7.07,8v.71a.36.36,0,0,1-.36.36ZM6,11.76H3a.1.1,0,1,1,0-.2H6a.1.1,0,0,1,0,.2Zm0-.58H3A.1.1,0,1,1,3,11H6a.1.1,0,0,1,0,.2Zm0-.58H3a.1.1,0,0,1-.1-.1.1.1,0,0,1,.1-.1H6a.1.1,0,0,1,.1.1A.1.1,0,0,1,6,10.6Zm1,1.07a.58.58,0,1,1,.58-.58A.58.58,0,0,1,7.05,11.67Z"/></g></g></g></g></svg>