<svg xmlns="http://www.w3.org/2000/svg" viewBox="0 0 15 15"><defs><style>.cls-1{fill:#026cb6;}</style></defs><title>Multi cluster-sector</title><g id="Layer_2" data-name="Layer 2"><g id="clusters"><g id="icons"><g id="blue"><path class="cls-1" d="M5.31,2.66A2.66,2.66,0,1,1,2.66,0,2.65,2.65,0,0,1,5.31,2.66Zm-2.65,7a2.66,2.66,0,1,0,2.65,2.66A2.66,2.66,0,0,0,2.66,9.69Zm9.68,0A2.66,2.66,0,1,0,15,12.34,2.65,2.65,0,0,0,12.34,9.69Zm0-9.69A2.66,2.66,0,1,0,15,2.66,2.66,2.66,0,0,0,12.34,0ZM7.5,4.84A2.66,2.66,0,1,0,10.16,7.5,2.66,2.66,0,0,0,7.5,4.84Z"/></g></g></g></g></svg>