<svg xmlns="http://www.w3.org/2000/svg" viewBox="0 0 13.57 15"><defs><style>.cls-1{fill:#026cb6;}</style></defs><title>Nutrition</title><g id="Layer_2" data-name="Layer 2"><g id="clusters"><g id="icons"><g id="blue"><path class="cls-1" d="M8.07,0a5.51,5.51,0,1,0,5.51,5.51A5.51,5.51,0,0,0,8.07,0ZM5.81,6.21a.67.67,0,1,1,.67.67A.67.67,0,0,1,5.81,6.21ZM8,10.14c-.93,0-1.69-.4-1.69-.89H9.68C9.68,9.74,8.93,10.14,8,10.14ZM9.66,6.88a.67.67,0,1,1,.67-.67A.67.67,0,0,1,9.66,6.88Zm2.5,6.81c0,.72-1.26,1.31-2.81,1.31a3.12,3.12,0,0,1-2.81-1.31c-.34-.6,0,0,0,0a6,6,0,0,0-1.36-1.26,1.62,1.62,0,0,1-1.89.49c-.91-.26-1.51-1-1.34-1.57l0-.07L.14,10.81a.18.18,0,1,1,.09-.36A18.58,18.58,0,0,1,2.15,11a1.82,1.82,0,0,1,1.75-.29c.87.25,1.45.9,1.35,1.49A4.68,4.68,0,0,1,6.79,13.4h0a5,5,0,0,0,2.57.71A10.05,10.05,0,0,0,12.16,13.69Zm-3.67.2,0,0h0c0-.08.09-.16,0-.21.08,0,.18,0,.27.05s.07.1.17.09A1.28,1.28,0,0,0,8.5,13.89Zm.81-.19a.26.26,0,0,1-.09-.41h-.1a1.08,1.08,0,0,1,0,.23s.11,0,.09.14a.29.29,0,0,1-.29.2L9,14h.06C9.05,13.92,9.21,13.75,9.31,13.7Zm.39.14a.54.54,0,0,0,.07-.14h0a.22.22,0,0,1-.18-.13l-.05.09c.13,0,.22.12.11.22a.35.35,0,0,1,.12.11h0ZM8.2,13.43c-.32-.12.2-.34.28-.37s.24,0,.24.09-.2.21-.32.25c.17,0,.13,0,.22-.09a1.4,1.4,0,0,0,.22-.1s0-.08.05-.13.69-.13.6.12a.27.27,0,0,0,.16,0c-.09-.23.29-.21.41-.19s.14.25,0,.2a.2.2,0,0,0,0,.08c.17-.07.32-.15.43-.06a.2.2,0,0,1,.07.26h.07c-.13-.25.3-.21.36,0,.29-.2.26.3.26.28s0,0,0,0l0,0c.49-.1.8-.21.8-.2a4,4,0,0,0-2.79-.87,5.19,5.19,0,0,0-2.58.58,4.15,4.15,0,0,0,.55.28,1.27,1.27,0,0,1,.41-.07c0-.48.65.18.27.11a.14.14,0,0,1,0,.2H8l.16-.11C8,13.67,8.15,13.52,8.2,13.43Zm2.72.13a.21.21,0,0,0,0,.18l.1,0-.08,0S10.92,13.61,10.92,13.56Zm-.47.18c-.18-.08.07-.27.08-.25s-.26.1-.36.12c.12,0,.25,0,.2.16.13,0,.18,0,.19.15h0C10.57,13.85,10.56,13.79,10.44,13.74Z"/></g></g></g></g></svg>