<svg xmlns="http://www.w3.org/2000/svg" viewBox="0 0 13.63 14.11"><defs><style>.cls-1{fill:#076db6;}</style></defs><title>Gender Based Violence</title><g id="Layer_2" data-name="Layer 2"><g id="watsan_camp" data-name="watsan &amp; camp"><g id="text"><path id="path0" class="cls-1" d="M3.59,0c-.06,0-.08.1-.11.37a1,1,0,0,1-.09.34,1.94,1.94,0,0,0-.13.59c0,.35-.14.41-.38.18l-.31-.27L2.31,1A2.17,2.17,0,0,0,1.93.67L1.82.62A.61.61,0,0,1,1.68.51C1.56.38,1.39.32,1.36.38A1.4,1.4,0,0,0,1.48,1c.05.16.12.37.14.47a1.64,1.64,0,0,0,.11.35,2.4,2.4,0,0,1,.12.36,2,2,0,0,0,.1.29c.06.12.06.18,0,.24l0,0H1.73a1.12,1.12,0,0,1-.34,0,1,1,0,0,0-.36,0c-.19,0-.2,0-.3,0S.4,2.52.4,2.64s0,.06.11.15A2,2,0,0,1,.7,3a2,2,0,0,0,.22.23,2,2,0,0,1,.23.24,1.49,1.49,0,0,0,.41.39c.27.14.2.24-.19.28A1.66,1.66,0,0,0,1,4.23l-.32.08c-.33.07-.33.13,0,.37A1.42,1.42,0,0,1,1,5c.09.11.42.26.48.21s-.12-.25-.29-.36-.16-.27.05-.34a1.26,1.26,0,0,1,.32-.06.63.63,0,0,0,.2,0L2,4.35c.16,0,.23-.07.21-.16a2.39,2.39,0,0,0-.49-.65.57.57,0,0,1-.16-.21c-.12-.23-.07-.3.19-.27l.29,0,.23,0c.21.08.24,0,.13-.42,0-.14-.09-.3-.1-.37a1.93,1.93,0,0,0-.1-.3c-.19-.44,0-.49.46-.09.57.55.75.59.8.17a.92.92,0,0,1,.09-.34,1.59,1.59,0,0,0,.08-.23c.05-.21.13-.28.23-.22s.07.06.21.3a1.8,1.8,0,0,0,.17.24.63.63,0,0,1,.13.22c.1.31.32.32.47,0A1.16,1.16,0,0,1,5,1.9l.12-.16.1-.13a.81.81,0,0,0,.1-.15c.16-.3.35-.19.45.26a8.12,8.12,0,0,0,.3.9c0,.06.1.06.18,0,.37-.32.45-.28.51.29,0,.3.14.36.26.12s.09-.19.08-.66c0-.23,0-.49,0-.57,0-.49-.11-.54-.45-.16-.17.19-.22.22-.35.21S6.06,1.6,6,1.29A4.62,4.62,0,0,0,5.85.76a2.16,2.16,0,0,1-.1-.56c0-.2-.13-.19-.24,0l-.1.17a1.26,1.26,0,0,0-.09.18,1.16,1.16,0,0,1-.11.2A.73.73,0,0,0,5.08,1a1.16,1.16,0,0,1-.1.21,1.87,1.87,0,0,0-.11.2c-.16.33-.34.3-.49-.08,0-.09-.1-.23-.14-.31A2.21,2.21,0,0,1,4.12.81,1.38,1.38,0,0,0,4,.61L3.87.31C3.73,0,3.67,0,3.59,0M10.06,2.8l-.31.07c-.16,0-.21.05-.25.12a.18.18,0,0,0,.18.28c.23,0,.21.18,0,.49L9.48,4c-.11.16-.23.19-.46.11a1.09,1.09,0,0,0-.88,0,1.63,1.63,0,0,0-1,.92l-.08.23A1.64,1.64,0,0,0,7.2,6.51a1.73,1.73,0,0,0,1.2.87,1.69,1.69,0,0,0,1.84-1.91,1.71,1.71,0,0,0-.4-.89c-.12-.16-.12-.21,0-.43L10,3.9c.16-.28.27-.33.38-.17s.42.15.32-.21a2.66,2.66,0,0,1-.09-.46c0-.31-.14-.37-.55-.27M4.62,4a1.48,1.48,0,0,0-.7.28,1.72,1.72,0,0,0-.7,1.76A1.74,1.74,0,0,0,4.29,7.33c.26.1.28.13.31.35,0,.41,0,.53-.36.54s-.35.07-.34.24.09.2.34.2.34,0,.36.34.07.34.22.34S5,9.25,5,9s0-.33.33-.35.36-.06.35-.24-.09-.2-.34-.21S5,8.15,5,7.8s0-.38.28-.46A1.75,1.75,0,0,0,6.41,5.45a1.89,1.89,0,0,0-.32-.74,1.8,1.8,0,0,0-.69-.55A2,2,0,0,0,4.62,4m4.22.43a1.33,1.33,0,0,1,.55.28,1.27,1.27,0,0,1,.16,1.75A1.19,1.19,0,0,1,7.44,6a1.33,1.33,0,0,1,.73-1.41,1,1,0,0,1,.67-.09m-3.7.07a1.25,1.25,0,0,1,.74,1.72,1.17,1.17,0,0,1-2.13.05,1.55,1.55,0,0,1-.1-.89,1.19,1.19,0,0,1,1.49-.89M.27,7.16A.58.58,0,0,0,0,7.41L0,7.5V9.06c0,1.63,0,1.67.06,1.79a5.61,5.61,0,0,0,.32.47l.14.19L.86,12l.16.21.12.16.12.17c.39.48.38.46.38,1s-.07.59.74.59c.64,0,.66,0,.73-.1s0-2.33,0-2.42-.12-.2-.45-.53l-.58-.6c-.87-.92-1-1-1.23-.89s-.32.5,0,.79l.27.28.22.21c.14.11.14.25,0,.25s-.07,0-.13-.07l-.29-.3C.49,10.3.47,10.27.45,10a.54.54,0,0,1,.17-.53c.24-.17.24-.19.24-1.19s0-.9-.14-1.06a.41.41,0,0,0-.45-.09M13,7.16a.59.59,0,0,0-.23.24l0,.08V8.3c0,1,0,1,.26,1.23a.73.73,0,0,1,.1.74,2.08,2.08,0,0,1-.26.32l-.11.11-.15.16-.14.15c-.14.17-.33.08-.2-.1l.06-.06a3.32,3.32,0,0,0,.39-.39c.38-.39.41-.59.15-.84a.3.3,0,0,0-.26-.08c-.16,0-.24.07-1,.9L11,11c-.33.34-.44.47-.48.58s0,2.32,0,2.38.09.11.74.11.75,0,.73-.54a1.13,1.13,0,0,1,.38-1.08l.1-.13.36-.48.11-.14.12-.16.11-.15.13-.17a3.22,3.22,0,0,0,.32-.48,13.81,13.81,0,0,0,0-1.68V7.5l0-.09A.41.41,0,0,0,13,7.16"/></g></g></g></svg>