<svg xmlns="http://www.w3.org/2000/svg" viewBox="0 0 15 13.57"><defs><style>.cls-1{fill:#026cb6;}</style></defs><title>Protection</title><g id="Layer_2" data-name="Layer 2"><g id="clusters"><g id="icons"><g id="blue"><path class="cls-1" d="M2.48,5.21,5.93,8.75v4.81h0v0H3.07V11.49L.19,7.68A.81.81,0,0,1,0,7.18V1.32a.83.83,0,0,1,1.66,0V4.7A1.1,1.1,0,0,0,1.12,5a1.12,1.12,0,0,0,0,1.58L2.67,8.18,2.88,8,1.31,6.36a.83.83,0,0,1,0-1.16A.85.85,0,0,1,1.67,5a.86.86,0,0,1,.41,0A.82.82,0,0,1,2.48,5.21Zm10,0L9.07,8.75v4.81h0v0h2.83V11.49l2.88-3.81A.81.81,0,0,0,15,7.18V1.32a.83.83,0,0,0-1.66,0V4.7a1.1,1.1,0,0,1,.55.28,1.12,1.12,0,0,1,0,1.58L12.33,8.18,12.12,8l1.58-1.61a.83.83,0,0,0,0-1.16.84.84,0,0,0-.35-.2.86.86,0,0,0-.41,0A.82.82,0,0,0,12.52,5.21Zm-5,1.32a3.16,3.16,0,0,0,2.31-1,3.14,3.14,0,0,0,1-2.31A3.14,3.14,0,0,0,9.81,1,3.13,3.13,0,0,0,7.5,0,3.12,3.12,0,0,0,5.2,1a3.13,3.13,0,0,0-1,2.31,3.12,3.12,0,0,0,1,2.31A3.14,3.14,0,0,0,7.5,6.53Z"/></g></g></g></g></svg>