<svg xmlns="http://www.w3.org/2000/svg" viewBox="0 0 13.78 15"><defs><style>.cls-1{fill:#026cb6;}</style></defs><title>Safety and Security</title><g id="Layer_2" data-name="Layer 2"><g id="clusters"><g id="icons"><g id="blue"><path class="cls-1" d="M13.05,9.26c-.64-1.31-1.63-2.1-4.07-2.1h-.5a6.16,6.16,0,0,0-2.14.3C5,7.87.22,13.67.22,13.67a.75.75,0,0,0,1.07,1.07L5.88,10.5c0,.11.09,4.5.09,4.5H11.5l.12-3.84L12,15h1.79A49.36,49.36,0,0,0,13.05,9.26ZM7.55,15H6.29l4.17-7.46a3.79,3.79,0,0,1,1.05.37Zm3.79-11A2.61,2.61,0,0,1,8.73,6.54h0A2.58,2.58,0,0,1,6.26,3.14h5A2.55,2.55,0,0,1,11.34,3.93ZM11.42.69l-.22,2h-5L6,.69,8.73,0Z"/></g></g></g></g></svg>