<svg xmlns="http://www.w3.org/2000/svg" viewBox="0 0 9.55 15"><defs><style>.cls-1{fill:#026cb6;}</style></defs><title>Emergency Telecommunications</title><g id="Layer_2" data-name="Layer 2"><g id="clusters"><g id="icons"><g id="blue"><path class="cls-1" d="M4.95,6.89V5.34a.47.47,0,1,0-.54,0V6.88h-3A.43.43,0,0,0,1,7.31v7.26a.43.43,0,0,0,.43.43H4.85a.43.43,0,0,0,.43-.43V7.31A.43.43,0,0,0,4.95,6.89Zm-.33,3.88a.43.43,0,0,1-.43.43H2a.43.43,0,0,1-.43-.43V8.21A.43.43,0,0,1,2,7.78H4.19a.43.43,0,0,1,.43.43Zm4.4-6A4.25,4.25,0,0,0,4.77.53h0A4.25,4.25,0,0,0,.53,4.77h0A.26.26,0,0,1,.26,5h0A.26.26,0,0,1,0,4.77H0A4.77,4.77,0,0,1,4.77,0h0A4.78,4.78,0,0,1,9.55,4.77h0A.27.27,0,0,1,9.28,5h0A.26.26,0,0,1,9,4.77Zm-1.37,0A2.88,2.88,0,0,0,4.77,1.9h0A2.88,2.88,0,0,0,1.89,4.77h0A.26.26,0,0,1,1.63,5h0a.26.26,0,0,1-.26-.27h0a3.41,3.41,0,0,1,3.4-3.41h0a3.41,3.41,0,0,1,3.4,3.41h0A.27.27,0,0,1,7.91,5h0a.26.26,0,0,1-.26-.27Zm-1.19,0A1.68,1.68,0,0,0,4.77,3.09h0A1.69,1.69,0,0,0,3.09,4.77h0A.27.27,0,0,1,2.83,5h0a.27.27,0,0,1-.26-.27h0A2.21,2.21,0,0,1,4.77,2.56h0A2.21,2.21,0,0,1,7,4.77H7A.26.26,0,0,1,6.72,5h0a.27.27,0,0,1-.26-.27Z"/></g></g></g></g></svg>