<svg xmlns="http://www.w3.org/2000/svg" viewBox="0 0 14.29 15"><defs><style>.cls-1{fill:#026cb6;}</style></defs><title>Water, Sanitation and Hygiene</title><g id="Layer_2" data-name="Layer 2"><g id="clusters"><g id="icons"><g id="blue"><path class="cls-1" d="M12.12,9.35a28.15,28.15,0,0,1,1.54,3.92,1.55,1.55,0,1,1-3.08,0A22.77,22.77,0,0,1,12.12,9.35Zm1.82-1.56V6a2.25,2.25,0,0,0-2.38-2.1H8.4l0-1a.52.52,0,0,0-.52-.52H6.62V1.76a.94.94,0,0,0,.27-.24H9.53A.95.95,0,1,0,10.28,0a.94.94,0,0,0-.76.4H6.91A.91.91,0,0,0,5.39.4H2.5A.94.94,0,0,0,1.75,0a1,1,0,1,0,0,1.91.93.93,0,0,0,.74-.38H5.41a.89.89,0,0,0,.28.24V2.4H4.37a.52.52,0,0,0-.52.52v1H0V7H4.28A1.92,1.92,0,0,0,6.1,8.24,2.11,2.11,0,0,0,8.06,7H9.6c.46,0,.63.3.68.86a.5.5,0,0,0-.23.42.52.52,0,0,0,.52.52h3.2a.51.51,0,0,0,.18-1Z"/></g></g></g></g></svg>