<svg xmlns="http://www.w3.org/2000/svg" viewBox="0 0 15 12.14"><defs><style>.cls-1{fill:#026cb6;}</style></defs><title>Camp Coordination and Camp Management (CCCM)</title><g id="Layer_2" data-name="Layer 2"><g id="clusters"><g id="icons"><g id="blue"><path class="cls-1" d="M5.4,4.7A.69.69,0,1,1,4.71,4,.69.69,0,0,1,5.4,4.7ZM4.78,9.43,4.93,12a.16.16,0,1,0,.32,0l.14-2.55h.45L5.38,6.57l.94,1.87a.16.16,0,1,0,.3-.13s-.69-1.86-.86-2.21-.34-.56-1-.56H4.64c-.64,0-.81.21-1,.56S2.8,8.32,2.8,8.32a.16.16,0,1,0,.3.13L4,6.57,3.57,9.43H4L4.16,12a.16.16,0,1,0,.33,0l.14-2.55ZM10.29,4A.69.69,0,1,0,11,4.7.69.69,0,0,0,10.29,4ZM11,8.07l0-1.5.84,1.87a.16.16,0,1,0,.3-.13s-.59-1.86-.76-2.21-.43-.56-1.08-.56h-.13c-.64,0-.91.21-1.08.56s-.76,2.21-.76,2.21a.16.16,0,1,0,.3.13l.84-1.87,0,1.5-.13,3.78a.27.27,0,0,0,.25.29h0a.27.27,0,0,0,.27-.25L10.29,9l.31,2.92a.27.27,0,0,0,.27.25h0a.27.27,0,0,0,.25-.29L11,8.07ZM7.5,8.21a.42.42,0,1,0,.42.42A.42.42,0,0,0,7.5,8.21Zm0,2.5L7.69,12A.17.17,0,0,0,8,12a.49.49,0,0,0,0-.1L7.94,10.3l0-.56c0-.19,0-.13.24-.26a3.38,3.38,0,0,0,.62-.74.48.48,0,0,0,.06-.11.11.11,0,0,0-.09-.13.12.12,0,0,0-.11,0s-.46.61-.79.66a1.44,1.44,0,0,0-.36,0H7.46a1.45,1.45,0,0,0-.36,0c-.32-.05-.76-.63-.79-.66a.12.12,0,0,0-.11,0,.11.11,0,0,0-.09.13.46.46,0,0,0,.06.11,3.39,3.39,0,0,0,.61.74c.22.13.22.07.24.26l0,.56L7,11.93A.46.46,0,0,0,7,12a.17.17,0,0,0,.16.12A.17.17,0,0,0,7.31,12L7.5,10.7m7.38-5.2a.66.66,0,0,0-.17-.92L8.6.33a2,2,0,0,0-2.2,0L.28,4.58A.66.66,0,1,0,1,5.67L7.15,1.41a.72.72,0,0,1,.69,0L14,5.67a.66.66,0,0,0,.92-.17Z"/></g></g></g></g></svg>