<svg xmlns="http://www.w3.org/2000/svg" viewBox="0 0 13.7 15"><defs><style>.cls-1{fill:#026cb6;}</style></defs><title>Environment</title><g id="Layer_2" data-name="Layer 2"><g id="clusters"><g id="icons"><g id="blue"><path class="cls-1" d="M12.23,8.92a3.38,3.38,0,0,1-5.15.52A13.6,13.6,0,0,1,8.88,7.68c1,.41,2.83-.37,2.83-.37a5,5,0,0,1-2.49.05,10.58,10.58,0,0,0,1.64-1.43,2.82,2.82,0,0,0,1.84-.84,3.63,3.63,0,0,1-1.5.41,5.18,5.18,0,0,0,1-2.82,10.17,10.17,0,0,1-1.31,2.59,4.11,4.11,0,0,1,0-1.63,2.93,2.93,0,0,0-.35,2.07A10.07,10.07,0,0,1,8.91,7a5.47,5.47,0,0,1,0-2.6s-.82,1.9-.31,2.89A10.18,10.18,0,0,0,6.71,9.09c-2.39-1.79-.34-5,1.45-5.72s2.6-.61,4.29-3.37A8,8,0,0,1,12.23,8.92ZM2,8.64A6.38,6.38,0,0,1,4.4,10.46l0-.06c1-3.54-4.42-3-4.42-3a12,12,0,0,1,1.16,2.4c.48,1.45,2.45,2.66,3.15.93A7.72,7.72,0,0,0,2,8.64Zm5,.8S6.7,9.1,6.71,9.1a4.68,4.68,0,0,0-1.37,3,6,6,0,0,0-.94-1.64,2.19,2.19,0,0,1-.08.23,7.22,7.22,0,0,1,.89,2.08,16.6,16.6,0,0,0,.18,2.15s.5.29.63-.25C5.74,14.21,5.46,11,7.08,9.44Z"/></g></g></g></g></svg>