<svg xmlns="http://www.w3.org/2000/svg" viewBox="0 0 15 13.57"><defs><style>.cls-1{fill:#026cb6;}</style></defs><title>Early Recovery</title><g id="Layer_2" data-name="Layer 2"><g id="clusters"><g id="icons"><g id="blue"><path class="cls-1" d="M11.37,8.44l3-3,.47.47h0a.57.57,0,0,1,0,.8L12.63,8.9a.57.57,0,0,1-.8,0h0ZM0,12a2.41,2.41,0,0,0,1.61,1.62L7.45,7.78,5.84,6.17ZM11,7.37l.07.15,0,.12a1.3,1.3,0,0,1,0,.23l2.58-2.56a2.53,2.53,0,0,1-2.14-2.14l-.46-.46A8,8,0,0,0,4.71,0L4.15.1c-.37.06-.41.6,0,.6l.48,0A5.11,5.11,0,0,1,5.75.95c1.57.6,2.58,2.3,1.24,3.62L5.92,5.62,8.07,7.74a3.19,3.19,0,0,1,.25-.27,2.3,2.3,0,0,1,2.21-.58.86.86,0,0,1,.34.24A1.19,1.19,0,0,1,11,7.3Z"/></g></g></g></g></svg>