<svg xmlns="http://www.w3.org/2000/svg" viewBox="0 0 15 7.81"><defs><style>.cls-1{fill:#026cb6;}</style></defs><title>Fishery</title><g id="Layer_2" data-name="Layer 2"><g id="clusters"><g id="icons"><g id="blue"><path class="cls-1" d="M15,4.51c0-.1,0-.2-.22-.31l-.49-.31c-.35-.22-.72-.43-1.08-.68A7.74,7.74,0,0,0,9.74,2.09a3,3,0,0,1-1.48-.35A12.15,12.15,0,0,0,6.76.32L6.15,0s.29.78.35.94c.15.36-.08.67-.18,1s.47.18.5.39-.91.43-1.45.53a5.24,5.24,0,0,1-2.54.2A5.72,5.72,0,0,1,.52,1.48,7.16,7.16,0,0,0,1.75,4c0,.2-.1.24-.23.37C1.24,4.64,0,6.07,0,6.52A3.74,3.74,0,0,0,1.1,6c.35-.2,1.67-1.18,2-1.33.08,0,1.11-.34,1.12-.21s-.07.25,0,.34.32.32.44.44a4.32,4.32,0,0,1,.94.92A4.22,4.22,0,0,1,6,7.81c.22,0,.44-.48.56-.66s.52-.9.68-.94.61.21.77.26a6.58,6.58,0,0,0,1.88.3,7.19,7.19,0,0,0,4.3-1.05,5.91,5.91,0,0,0,.56-.6.47.47,0,0,0-.23-.17C14.77,4.81,15,4.67,15,4.51Zm-1.36.07A.34.34,0,1,1,14,4.24.34.34,0,0,1,13.63,4.58Z"/></g></g></g></g></svg>