<svg xmlns="http://www.w3.org/2000/svg" viewBox="0 0 15 15"><defs><style>.cls-1{fill:#026cb6;}</style></defs><title>Food Security</title><g id="Layer_2" data-name="Layer 2"><g id="clusters"><g id="icons"><g id="blue"><path class="cls-1" d="M15,8.79h0a8.29,8.29,0,0,1-1,3.41S12.62,15,8.28,15s-5.75-2.77-5.75-2.77a8.26,8.26,0,0,1-1-3.44h0s0-.06,0-.09a1.91,1.91,0,0,1,.9-1.46l.6.39a1.09,1.09,0,0,0-.59.83c0,1,2.6,1.9,5.81,1.9s5.81-.85,5.81-1.9c0-.73-1.25-1.35-3.08-1.67V6c2.35.46,4,1.49,4,2.68C15,8.73,15,8.76,15,8.79ZM3.79,4.27A1.26,1.26,0,0,0,4,5.13a1.92,1.92,0,0,0,.73.71,1.92,1.92,0,0,0-.24-.92,2.56,2.56,0,0,0-.6-.71A12,12,0,0,0,2.65,2.8l-.82-.85s.29.34.79.88A13.11,13.11,0,0,1,3.79,4.27ZM5.85,8.79a3.71,3.71,0,0,0,.89.71,3.09,3.09,0,0,0,1.18.34A2.08,2.08,0,0,0,7,8.91a1.56,1.56,0,0,0-1.11-.18C5.18,8.28,4.53,7.83,4,7.51c-.75-.46-1.23-.7-1.23-.7s.47.26,1.2.74C4.48,7.89,5.1,8.35,5.85,8.79ZM6.3,6.38a1.43,1.43,0,0,0,0,1,2.21,2.21,0,0,0,.74,1A2.24,2.24,0,0,0,7,7.24a3,3,0,0,0-.59-.92A13,13,0,0,0,5.19,4.48L4.35,3.35,5.14,4.5A14.4,14.4,0,0,1,6.3,6.38ZM4.88,7.59a3.47,3.47,0,0,0,.85.64,2.86,2.86,0,0,0,1.1.29A2,2,0,0,0,6,7.67a1.46,1.46,0,0,0-1-.15c-.71-.4-1.33-.81-1.82-1.1C2.44,6,2,5.79,2,5.79s.44.24,1.13.68C3.59,6.77,4.18,7.19,4.88,7.59Zm-1-1.19A3.17,3.17,0,0,0,4.67,7a2.64,2.64,0,0,0,1,.25,1.82,1.82,0,0,0-.79-.77,1.37,1.37,0,0,0-1-.13c-.67-.36-1.24-.73-1.7-1C1.59,5,1.17,4.77,1.17,4.77s.41.22,1.06.62C2.67,5.66,3.22,6,3.88,6.4Zm-1-1.73A1.55,1.55,0,0,0,3.59,5a1.07,1.07,0,0,0-.34-.74A1.16,1.16,0,0,0,2.52,4,21.22,21.22,0,0,0,.05,2.17L0,2.13a31.12,31.12,0,0,1,2.49,2A1.16,1.16,0,0,0,2.85,4.67Zm0,.56a2.84,2.84,0,0,0,.74.53A2.37,2.37,0,0,0,4.52,6a1.73,1.73,0,0,0-.74-.7,1.29,1.29,0,0,0-.88-.11c-.62-.32-1.15-.66-1.57-.9-.61-.35-1-.52-1-.52s.39.19,1,.56C1.71,4.56,2.22,4.9,2.83,5.23Zm2.25.06a1.33,1.33,0,0,0,.11.94,2.05,2.05,0,0,0,.74.83,2.12,2.12,0,0,0-.18-1,2.88,2.88,0,0,0-.6-.82A12.49,12.49,0,0,0,3.94,3.6l-.83-1,.79,1A13.61,13.61,0,0,1,5.08,5.3ZM9.72,6.43a1.29,1.29,0,0,0-.41.8,1.89,1.89,0,0,0,.14,1,2,2,0,0,0,.4-.9,2.63,2.63,0,0,0,0-.95,10.92,10.92,0,0,0-.1-1.89c-.09-.74-.15-1.21-.15-1.21l.11,1.21A12,12,0,0,1,9.72,6.43ZM9.29,5.2A1.19,1.19,0,0,0,9,6a1.75,1.75,0,0,0,.19.94,1.86,1.86,0,0,0,.31-.86,2.44,2.44,0,0,0-.1-.87,10.35,10.35,0,0,0-.2-1.74L9,2.33l.16,1.11A11.47,11.47,0,0,1,9.29,5.2ZM8.8,4a1.09,1.09,0,0,0-.25.72,1.61,1.61,0,0,0,.24.85A1.76,1.76,0,0,0,9,4.77,2.26,2.26,0,0,0,8.87,4a9.63,9.63,0,0,0-.29-1.59l-.25-1,.21,1A10.88,10.88,0,0,1,8.8,4Zm.87,5.61a2.12,2.12,0,0,0,.5-.93,2.79,2.79,0,0,0,0-1,11.26,11.26,0,0,0,0-2c-.05-.81-.1-1.31-.1-1.31l0,1.31a12.37,12.37,0,0,1-.05,2.06,1.4,1.4,0,0,0-.49.83A2,2,0,0,0,9.67,9.61ZM7.2,3.21a2.17,2.17,0,0,0,.35.63,1.81,1.81,0,0,0,.61.48,1.35,1.35,0,0,0-.29-.75,1,1,0,0,0-.6-.37c-.33-.44-.59-.87-.82-1.18s-.54-.71-.54-.71.21.27.51.73S6.88,2.77,7.2,3.21Zm.21-.4a1.18,1.18,0,0,0,.41.48.87.87,0,0,0,0-.66.9.9,0,0,0-.42-.44A16.58,16.58,0,0,0,6.28,0l0,0A24,24,0,0,1,7.36,2.26.93.93,0,0,0,7.41,2.81Zm.5,2.3a2,2,0,0,0,.65.53,1.42,1.42,0,0,0-.3-.83,1.05,1.05,0,0,0-.65-.41C7.26,3.91,7,3.45,6.74,3.1s-.58-.78-.58-.78.22.29.54.8c.22.35.49.81.83,1.29A2.53,2.53,0,0,0,7.91,5.11Zm.32-2.28A1,1,0,0,0,8,3.51a1.5,1.5,0,0,0,.28.76,1.57,1.57,0,0,0,.15-.76,2,2,0,0,0-.19-.72,9.52,9.52,0,0,0-.37-1.43L7.64.47s.09.35.26.91A10.6,10.6,0,0,1,8.23,2.83ZM7.85,5.62a2.62,2.62,0,0,0,.38.75A2.19,2.19,0,0,0,8.92,7a1.55,1.55,0,0,0-.31-.9,1.13,1.13,0,0,0-.69-.45c-.38-.53-.67-1-.92-1.41-.36-.54-.61-.85-.61-.85s.24.32.58.87C7.2,4.59,7.48,5.09,7.85,5.62ZM4.21,8.92s.41.24,1.06.69l.14,0A13.9,13.9,0,0,0,4.21,8.92Zm5.18.91a1.51,1.51,0,0,0-.3-.35c0-.09-.07-.18-.11-.26a3.41,3.41,0,0,0,.5.4v0l.08.27h.12c-.08-.26-.16-.51-.25-.75a1.68,1.68,0,0,0-.17-.42L9,8.14l.22.14a1.64,1.64,0,0,0-.3-1,1.2,1.2,0,0,0-.56-.45l-.51-1,.45,1-.12,0c-.39-.57-.7-1.12-1-1.53-.38-.59-.64-.92-.64-.92s.25.35.61.94c.24.41.54,1,.92,1.53a2.89,2.89,0,0,0,.39.82A2,2,0,0,0,8.88,8L9,8.34A1.28,1.28,0,0,0,8.42,8l-.13-.2c-.25-.54-.52-1-.75-1.42C7,5.52,6.72,5,6.72,5l.77,1.44.18.34-.24-.4c-.39-.63-.67-1-.67-1s.26.37.63,1c.22.38.47.86.78,1.39.14.3.27.63.38,1a2.27,2.27,0,0,0-.1.26c-.34-.59-.62-1.14-.88-1.56l-.23-.38a15.35,15.35,0,0,0-1-1.66c-.51-.78-.84-1.27-.83-1.27l.78,1.29a14.87,14.87,0,0,1,1.12,2.1,1.55,1.55,0,0,0,0,1.1,2.39,2.39,0,0,0,.72,1.08,2.48,2.48,0,0,0,0-1.1l.29.52a1.73,1.73,0,0,0,0,.78l1,0ZM4.81,8.62c-.79-.51-1.3-.76-1.3-.76s.5.28,1.27.81c.45.31,1,.71,1.62,1.13l.23,0C5.93,9.38,5.32,8.95,4.81,8.62Zm5.69.31a11.83,11.83,0,0,0,.14-2.19l0-1.41s0,.54,0,1.4a12.9,12.9,0,0,1-.19,2.2,1.53,1.53,0,0,0-.58.85v0l.66-.08A3.36,3.36,0,0,0,10.5,8.94Z"/></g></g></g></g></svg>