<svg xmlns="http://www.w3.org/2000/svg" viewBox="0 0 15 15"><defs><style>.cls-1{fill:#026cb6;}</style></defs><title>Health</title><g id="Layer_2" data-name="Layer 2"><g id="clusters"><g id="icons"><g id="blue"><path class="cls-1" d="M10.36,1c-.47-.39-.8-.3-1.28.55A1.15,1.15,0,0,1,8,2.14V2A1.08,1.08,0,1,0,7,2v.11a1.15,1.15,0,0,1-1.12-.61C5.44.69,5.11.59,4.64,1S2.29,3.61,0,3.41a1.51,1.51,0,0,0,1.69.8,1.53,1.53,0,0,0,1.73.21,1.27,1.27,0,0,0,1.44,0,1.25,1.25,0,0,0,1.36.07,1.25,1.25,0,0,0,.84.21l0,2.59-.14,0s-.77-.16-1.58-.39A5.31,5.31,0,0,1,3.61,6.2l.05,0A1.35,1.35,0,0,1,4,6.06,7.25,7.25,0,0,1,5,6,4.81,4.81,0,0,1,6,6a.57.57,0,0,0,.57-.4s0,0,0,0c0-.31-.27-.33-.46-.37a2.2,2.2,0,0,0-.58,0c-.71.05-2.89-.12-3.17,1a.53.53,0,0,1,0,.08C2.42,7.25,4.49,7.69,6,8A2,2,0,0,0,5.1,9.38c-.05.63.45,1.22,1.6,1.89-.88.62-1.45,1.2-1.41,1.91A2.68,2.68,0,0,0,6.88,15h0a5.27,5.27,0,0,1-.74-1.65c0-.34.15-.84,1-1.45l0,2.13h0a.32.32,0,1,0,.64,0h0l0-2.07c.78.58,1,1.06.91,1.39A5.28,5.28,0,0,1,8,15H8a2.68,2.68,0,0,0,1.58-1.83c0-.7-.53-1.29-1.41-1.91C9.35,10.6,9.85,10,9.8,9.38A2,2,0,0,0,8.91,8c1.5-.3,3.58-.73,3.67-1.74a.51.51,0,0,1,0-.08c-.27-1.15-2.46-1-3.17-1a2.2,2.2,0,0,0-.58,0c-.2,0-.44.05-.46.37,0,0,0,0,0,0a.57.57,0,0,0,.57.4,4.8,4.8,0,0,1,.93,0,7.25,7.25,0,0,1,1.06.1,1.35,1.35,0,0,1,.33.1l.05,0a5.32,5.32,0,0,1-1.76.71C8.72,7.13,8,7.29,8,7.3H7.9l0-2.57a1.24,1.24,0,0,0,.84-.21,1.25,1.25,0,0,0,1.36-.07,1.27,1.27,0,0,0,1.44,0,1.53,1.53,0,0,0,1.73-.21A1.51,1.51,0,0,0,15,3.41C12.71,3.61,10.84,1.37,10.36,1ZM6.1,9.58c0-.23-.06-.76,1-1.16l0,2.14-.64-.4C6.2,10,6.07,9.74,6.1,9.58Zm2.31.58-.55.35,0-2.05c1,.39.9.9.92,1.12S8.7,10,8.41,10.16Z"/></g></g></g></g></svg>