<svg xmlns="http://www.w3.org/2000/svg" viewBox="0 0 13.63 13.14"><defs><style>.cls-1{fill:#076db6;}</style></defs><title>Child Protection</title><g id="Layer_2" data-name="Layer 2"><g id="watsan_camp" data-name="watsan &amp; camp"><g id="icons"><path id="path0" class="cls-1" d="M4.58,0a1.46,1.46,0,0,0-.39.21.75.75,0,0,0-.27.46c0,.22-.09.29-.24.38s-.23.18-.23.33c0,.32.29.48.61.33s.22-.09.48,0a.64.64,0,0,0,.54,0,.46.46,0,0,1,.46,0c.23.09.38.08.51-.07s.14-.4-.15-.6C5.79,1,5.75.93,5.7.73A1.75,1.75,0,0,0,5.5.32.88.88,0,0,0,5.17.08L5,0H4.58M8.35,1.33a.77.77,0,0,0-.55.78.68.68,0,0,0,.42.61c.29.15.29.24,0,.29a1,1,0,0,0-.86.53l-.11.19-.11.18c-.27.49-.43.53-.53.12a2,2,0,0,0-.06-.2,2.11,2.11,0,0,1-.06-.2,3.2,3.2,0,0,0-.16-.51c0-.06-.07-.19-.1-.28a1.36,1.36,0,0,0-.38-.59A1,1,0,0,0,5.22,2L4.91,2a.81.81,0,0,0-.28,0L4.41,2a1,1,0,0,0-.68.34,1.74,1.74,0,0,0-.27.5c0,.08-.07.22-.11.31a3.74,3.74,0,0,0-.12.37c0,.12-.08.27-.11.35S3,4.15,3,4.28s-.09.31-.11.38c-.09.24,0,.39.15.39s.23-.14.42-.63a.88.88,0,0,1,.15-.25L3.71,4c.15-.22.18,0,.08.39,0,.11-.07.3-.09.41s-.09.43-.17.73-.09.54.19.56.3.09.32.49c0,.09,0,.25,0,.36s.06.71.08,1.11.06.53.23.53.24-.15.24-.51c0-.15,0-.41.06-1.34,0-.39,0-.46.11-.51A.15.15,0,0,1,5,6.33,15.15,15.15,0,0,1,5.1,8c0,.52.06.62.24.62s.2-.08.24-.76c0-.23,0-.59.06-.79s0-.45,0-.56c0-.31.06-.37.31-.39s.31-.09.06-1C6,5,6,4.82,6,4.72a3.38,3.38,0,0,0-.1-.48C5.8,4,5.87,3.84,6,4l.12.16a.78.78,0,0,1,.14.25c.24.65.39.75.7.46a5.27,5.27,0,0,0,.4-.4c.15-.18.26-.23.37-.17a7.58,7.58,0,0,1,0,2.26c0,.39,0,.69-.06,1,0,.15,0,.35,0,.46,0,.29,0,.39.13.48s.23.07.36-.06.1-.15.18-1.07c.05-.64.11-.82.24-.81s.16.19.21.84c.07.87.08.93.17,1a.25.25,0,0,0,.34.1c.14-.07.19-.19.17-.43,0-.08,0-.3,0-.49s0-.43,0-.54,0-.29,0-.42c0-.44,0-.71-.06-.82a5.31,5.31,0,0,1,0-1.08c.07-.2.26.12.34.58,0,.24.08.3.19.3s.21-.16.15-.49c0-.07,0-.26-.05-.43a3.23,3.23,0,0,0-.2-1.11A.94.94,0,0,0,9,3c-.38-.08-.41-.14-.12-.28a.68.68,0,0,0,.46-.64.77.77,0,0,0-.48-.76,1.27,1.27,0,0,0-.48,0M.27,6.2A.58.58,0,0,0,0,6.54C0,6.7,0,9.72,0,9.81a2.43,2.43,0,0,0,.32.49l.13.18.32.43.34.46.13.17.28.37c.09.12.1.16.09.64,0,.65-.07.6.75.59.65,0,.66,0,.72-.1a21.81,21.81,0,0,0,0-2.4c0-.12-.11-.2-.44-.54l-.5-.52a9.26,9.26,0,0,0-1-1,.4.4,0,0,0-.51.57c.06.11.09.15.5.56.22.23.24.25.24.32s-.13.1-.23,0L.91,9.77l-.27-.3L.55,9.36a.74.74,0,0,1-.09-.52.37.37,0,0,1,.18-.31c.23-.17.23-.18.23-1.2V6.52l0-.08A.42.42,0,0,0,.27,6.2M13,6.21a.53.53,0,0,0-.21.24l0,.08v.81c0,1,0,1,.23,1.2a.37.37,0,0,1,.18.31.74.74,0,0,1-.09.52L13,9.47l-.27.3-.27.28c-.1.11-.23.11-.23,0s0-.09.24-.32c.41-.42.44-.45.5-.56a.4.4,0,0,0-.51-.57,9.16,9.16,0,0,0-1,1l-.5.52c-.33.34-.39.41-.44.54a21.92,21.92,0,0,0,0,2.4c.06.1.07.1.72.1.82,0,.76.06.75-.59,0-.48,0-.52.09-.64l.28-.37.13-.17.34-.46.32-.43.13-.18a2.41,2.41,0,0,0,.32-.49c0-.09,0-3.11,0-3.26a.44.44,0,0,0-.6-.34"/></g></g></g></svg>