<svg xmlns="http://www.w3.org/2000/svg" viewBox="0 0 13.63 13.6"><defs><style>.cls-1{fill:#076db6;}</style></defs><title>Housing, Land and Property</title><g id="Layer_2" data-name="Layer 2"><g id="watsan_camp" data-name="watsan &amp; camp"><g id="icons"><path id="path0" class="cls-1" d="M6.61,0s-.35.32-.85.82L3.93,2.66,2.8,3.77l-.39.38c-.32.31-.36.36-.34.45s.07.09.32.08c.48,0,.57,0,.66.1a.22.22,0,0,1,.05.08s0,.75,0,1.63c0,1.8,0,1.66.11,1.72s2.69,0,2.78,0,.11,0,.1-1.13v-1l0-.06a.35.35,0,0,1,.1-.1l.07,0h.36c.39,0,.46,0,.54.07s.11,0,.1,1.17v1l0,0c.08.09,0,.08,1.46.08s1.41,0,1.47-.12a8.25,8.25,0,0,0,0-1.64,8.17,8.17,0,0,1,0-1.64c.07-.16.16-.18.7-.15s.44-.09.12-.4S9.18,2.37,7.38.6C6.75,0,6.75,0,6.61,0M.26,6.66A.53.53,0,0,0,0,6.91L0,7V8.6c0,1.28,0,1.62,0,1.67a3,3,0,0,0,.32.49l.12.16.36.48.31.41.13.17.29.39c.09.12.09.14.09.64s-.07.6.75.59c.56,0,.59,0,.64,0s.11,0,.11-1.26.05-1.22-.48-1.76L2.09,10C1.17,9,1,8.89.77,9.12s-.22.45,0,.72l.25.26.18.18c.1.08.15.14.16.18s-.14.17-.25,0L.88,10.2c-.4-.41-.42-.44-.44-.69A.55.55,0,0,1,.6,9a.53.53,0,0,0,.21-.25l0-.1V7l0-.07a.41.41,0,0,0-.55-.22M13,6.65a.61.61,0,0,0-.22.23l0,.07V8.67l0,.1A.53.53,0,0,0,13,9a.55.55,0,0,1,.16.5c0,.25,0,.28-.44.69l-.27.29c-.11.15-.29.13-.25,0s.06-.1.16-.18l.18-.18.25-.26c.26-.27.28-.52,0-.72s-.4-.13-1.32.84l-.57.59c-.53.54-.48.33-.48,1.76s0,1.19.11,1.26.08,0,.64,0c.82,0,.75.06.75-.59s0-.52.09-.64l.29-.39.13-.17.31-.41.36-.48.12-.16a3,3,0,0,0,.32-.49c0-.05,0-.39,0-1.67V7l0-.08A.42.42,0,0,0,13,6.65"/></g></g></g></svg>